<svg xmlns="http://www.w3.org/2000/svg" xmlns:xlink="http://www.w3.org/1999/xlink" width="344pt" height="383pt" viewBox="0.00 0.00 344.39 383.00">
<g id="graph0" class="graph" transform="translate(4,379) scale(1)">
<title>graph_z3ju</title>
<polygon fill="transparent" stroke="transparent" points="-4,4 -4,-379 340.39,-379 340.39,4 -4,4"></polygon>
<!-- graph_z3ju -->
<g id="node1" class="node">
<title>graph_z3ju</title>
<path fill="#428e92" stroke="#000000" stroke-opacity="0.333333" d="M260.68,-375C260.68,-375 75.7,-375 75.7,-375 69.7,-375 63.7,-369 63.7,-363 63.7,-363 63.7,-326 63.7,-326 63.7,-320 69.7,-314 75.7,-314 75.7,-314 260.68,-314 260.68,-314 266.68,-314 272.68,-320 272.68,-326 272.68,-326 272.68,-363 272.68,-363 272.68,-369 266.68,-375 260.68,-375"></path>
<text text-anchor="start" x="103.88" y="-352.1" font-family="Red Hat Display,sans-serif" font-weight="bold" font-size="11.00" fill="#000000" fill-opacity="0.733333">MAP_QF6V size ∈ int[0 10]</text>
<text text-anchor="start" x="77.95" y="-341.1" font-family="Red Hat Display,sans-serif" font-size="11.00" fill="#000000" fill-opacity="0.733333">a = field_e5_0 ∈ float{1, 2, 3} UNIQUE</text>
<text text-anchor="start" x="111.02" y="-330.1" font-family="Red Hat Display,sans-serif" font-size="11.00" fill="#000000" fill-opacity="0.733333">x = field_pqi2 ∈ int[0 10]</text>
</g>
<!-- graph_yu2b -->
<g id="node2" class="node">
<title>graph_yu2b</title>
<path fill="#00363a" stroke="#000000" stroke-opacity="0.333333" d="M293.78,-285C293.78,-285 42.61,-285 42.61,-285 36.61,-285 30.61,-279 30.61,-273 30.61,-273 30.61,-225 30.61,-225 30.61,-219 36.61,-213 42.61,-213 42.61,-213 293.78,-213 293.78,-213 299.78,-213 305.78,-219 305.78,-225 305.78,-225 305.78,-273 305.78,-273 305.78,-279 299.78,-285 293.78,-285"></path>
<text text-anchor="start" x="91.97" y="-262.1" font-family="Red Hat Display,sans-serif" font-weight="bold" font-size="11.00" fill="#ffffff" fill-opacity="0.733333">REDUCE_M5QO size ∈ int[0 10]</text>
<text text-anchor="start" x="74.97" y="-251.1" font-family="Red Hat Display,sans-serif" font-size="11.00" fill="#ffffff" fill-opacity="0.733333">field_pqi2 = count(field_nfbh) ∈ int[0 10]</text>
<text text-anchor="start" x="44.65" y="-240.1" font-family="Red Hat Display,sans-serif" font-size="11.00" fill="#ffffff" fill-opacity="0.733333">field_e5_0 = first(field_s7n2) ∈ float{1, 2, 3} UNIQUE</text>
<text text-anchor="start" x="112.29" y="-229.1" font-family="Red Hat Display,sans-serif" font-size="11.00" fill="#ffffff" fill-opacity="0.733333">GROUP BY (field_s7n2)</text>
</g>
<!-- graph_z3ju&#45;&gt;graph_yu2b -->
<g id="edge3" class="edge">
<title>graph_z3ju-&gt;graph_yu2b</title>
<path fill="none" stroke="#2b303a" d="M168.19,-313.92C168.19,-308.09 168.19,-301.85 168.19,-295.64"></path>
<polygon fill="#2b303a" stroke="#2b303a" points="171.69,-295.28 168.19,-285.28 164.69,-295.28 171.69,-295.28"></polygon>
</g>
<!-- graph_gesx -->
<g id="node3" class="node">
<title>graph_gesx</title>
<path fill="#428e92" stroke="#000000" stroke-opacity="0.333333" d="M324.58,-184C324.58,-184 11.81,-184 11.81,-184 5.81,-184 -0.19,-178 -0.19,-172 -0.19,-172 -0.19,-124 -0.19,-124 -0.19,-118 5.81,-112 11.81,-112 11.81,-112 324.58,-112 324.58,-112 330.58,-112 336.58,-118 336.58,-124 336.58,-124 336.58,-172 336.58,-172 336.58,-178 330.58,-184 324.58,-184"></path>
<text text-anchor="start" x="100.53" y="-161.1" font-family="Red Hat Display,sans-serif" font-weight="bold" font-size="11.00" fill="#000000" fill-opacity="0.733333">MAP_AWW3 size ∈ int[0 10]</text>
<text text-anchor="start" x="14" y="-150.1" font-family="Red Hat Display,sans-serif" font-size="11.00" fill="#000000" fill-opacity="0.733333">field_nfbh = abs(((10 * a) + b)) ∈ float[9.9 11]∪[19.9 21]∪[29.9 31]</text>
<text text-anchor="start" x="100.7" y="-139.1" font-family="Red Hat Display,sans-serif" font-size="11.00" fill="#000000" fill-opacity="0.733333">field_s7n2 = a ∈ float{1, 2, 3}</text>
<text text-anchor="start" x="76.37" y="-128.1" font-family="Red Hat Display,sans-serif" font-size="11.00" fill="#000000" fill-opacity="0.733333">WHERE ((b &gt; (- 0.1)) and (a in (1, 2, 3)))</text>
</g>
<!-- graph_yu2b&#45;&gt;graph_gesx -->
<g id="edge2" class="edge">
<title>graph_yu2b-&gt;graph_gesx</title>
<path fill="none" stroke="#2b303a" d="M168.19,-212.82C168.19,-206.84 168.19,-200.55 168.19,-194.35"></path>
<polygon fill="#2b303a" stroke="#2b303a" points="171.69,-194.07 168.19,-184.07 164.69,-194.07 171.69,-194.07"></polygon>
</g>
<!-- graph_0jra -->
<g id="node4" class="node">
<title>graph_0jra</title>
<path fill="#ff1744" stroke="#000000" stroke-opacity="0.333333" d="M253.46,-83C253.46,-83 82.93,-83 82.93,-83 76.93,-83 70.93,-77 70.93,-71 70.93,-71 70.93,-12 70.93,-12 70.93,-6 76.93,0 82.93,0 82.93,0 253.46,0 253.46,0 259.46,0 265.46,-6 265.46,-12 265.46,-12 265.46,-71 265.46,-71 265.46,-77 259.46,-83 253.46,-83"></path>
<text text-anchor="start" x="111.59" y="-60.1" font-family="Red Hat Display,sans-serif" font-weight="bold" font-size="11.00" fill="#ffffff" fill-opacity="0.733333">TABLE_1 size ∈ int{10}</text>
<text text-anchor="start" x="127.22" y="-49.1" font-family="Red Hat Display,sans-serif" font-size="11.00" fill="#ffffff" fill-opacity="0.733333">a = a ∈ float[0 10]</text>
<text text-anchor="start" x="109.8" y="-38.1" font-family="Red Hat Display,sans-serif" font-size="11.00" fill="#ffffff" fill-opacity="0.733333">b = b ∈ option(float[-1 1])</text>
<text text-anchor="start" x="85.06" y="-27.1" font-family="Red Hat Display,sans-serif" font-size="11.00" fill="#ffffff" fill-opacity="0.733333">c = c ∈ date[1980-12-06 2023-12-06]</text>
<text text-anchor="start" x="130.87" y="-16.1" font-family="Red Hat Display,sans-serif" font-size="11.00" fill="#ffffff" fill-opacity="0.733333">d = d ∈ int[0 10]</text>
</g>
<!-- graph_gesx&#45;&gt;graph_0jra -->
<g id="edge1" class="edge">
<title>graph_gesx-&gt;graph_0jra</title>
<path fill="none" stroke="#2b303a" d="M168.19,-111.91C168.19,-105.99 168.19,-99.73 168.19,-93.5"></path>
<polygon fill="#2b303a" stroke="#2b303a" points="171.69,-93.09 168.19,-83.09 164.69,-93.09 171.69,-93.09"></polygon>
</g>
</g>
</svg>